<svg width="194" height="35" viewBox="0 0 194 35" fill="none" xmlns="http://www.w3.org/2000/svg">
<g clip-path="url(#clip0_8_5)">
<mask id="mask0_8_5" style="mask-type:luminance" maskUnits="userSpaceOnUse" x="0" y="0" width="32" height="35">
<path d="M31.7267 0.196377H0V34.7948H31.7267V0.196377Z" fill="white"/>
</mask>
<g mask="url(#mask0_8_5)">
<path d="M31.7265 0.196377H24.6153V34.7948H31.7265V0.196377Z" fill="white"/>
<path d="M10.3757 19.2578C10.5364 19.4175 10.5372 19.6772 10.3776 19.8379L0 30.282V8.94859L10.3757 19.2578Z" fill="white"/>
<path d="M0 0.128006H7.65816L21.2096 13.3406C21.2888 13.4179 21.3334 13.5238 21.3334 13.6344V24.8335C21.3334 25.0774 21.0383 25.1994 20.8661 25.0265L4.37609 8.46993V18.3161L0 22.4871V8.40156V0.128006Z" fill="#FB5959"/>
<path d="M21.3336 30.0769L31.7268 19.2051V34.7949H21.3336C17.8506 31.391 15.8797 29.3981 12.4324 26.0277C12.3535 25.9505 12.3079 25.8437 12.3079 25.7333V21.9709C12.3079 21.7293 12.5983 21.6063 12.7718 21.7746L21.3336 30.0769Z" fill="#44B6C6"/>
</g>
<path d="M38.5254 35C38.0878 35 37.869 34.7812 37.869 34.3436V0.656415C37.869 0.218805 38.0878 0 38.5254 0H56.8263C57.2639 0 57.4827 0.218805 57.4827 0.656415V6.32783C57.4827 6.76544 57.2639 6.98425 56.8263 6.98425H46.6124V14.4411H55.9336C56.3712 14.4411 56.59 14.6599 56.59 15.0975V19.9025C56.59 20.3401 56.3712 20.5589 55.9336 20.5589H46.6124V27.9895H56.8263C57.2639 27.9895 57.4827 28.2083 57.4827 28.6459V34.3436C57.4827 34.7812 57.2639 35 56.8263 35H38.5254ZM70.5147 35C70.0946 35 69.7445 34.8512 69.4645 34.5536L64.2132 29.3023C63.9156 29.0223 63.7668 28.6722 63.7668 28.2521V0.656415C63.7668 0.218805 63.9856 0 64.4232 0H71.8538C72.2914 0 72.5102 0.218805 72.5102 0.656415V27.9632H78.3917V0.656415C78.3917 0.218805 78.6105 0 79.0481 0H86.4787C86.9163 0 87.1346 0.218805 87.1346 0.656415V27.9632H92.9903V0.656415C92.9903 0.218805 93.2092 0 93.6468 0H101.104C101.541 0 101.76 0.218805 101.76 0.656415V28.2521C101.76 28.6722 101.611 29.0223 101.314 29.3023L96.0624 34.5536C95.7648 34.8512 95.4147 35 95.0121 35H88.8418C88.4392 35 88.0891 34.8512 87.7915 34.5536L83.3804 30.1425H82.1464L77.7353 34.5536C77.4377 34.8512 77.0876 35 76.685 35H70.5147ZM145.962 35C145.524 35 145.305 34.7812 145.305 34.3436V0.656415C145.305 0.218805 145.524 0 145.962 0H164.263C164.7 0 164.919 0.218805 164.919 0.656415V6.32783C164.919 6.76544 164.7 6.98425 164.263 6.98425H154.049V14.4411H163.37C163.808 14.4411 164.026 14.6599 164.026 15.0975V19.9025C164.026 20.3401 163.808 20.5589 163.37 20.5589H154.049V27.9895H164.263C164.7 27.9895 164.919 28.2083 164.919 28.6459V34.3436C164.919 34.7812 164.7 35 164.263 35H145.962ZM171.86 35C171.422 35 171.203 34.7812 171.203 34.3436V0.656415C171.203 0.218805 171.422 0 171.86 0H186.773C187.193 0 187.544 0.140036 187.824 0.420106L193.075 5.67142C193.372 5.96899 193.521 6.31908 193.521 6.72168V34.3436C193.521 34.7812 193.302 35 192.865 35H185.434C184.997 35 184.778 34.7812 184.778 34.3436V6.98425H179.947V34.3436C179.947 34.7812 179.728 35 179.29 35H171.86Z" fill="white"/>
<path d="M123.182 35C122.762 35 122.411 34.8512 122.131 34.5536L116.88 29.3023C116.583 29.0223 116.434 28.6722 116.434 28.2521V6.72168C116.434 6.31908 116.583 5.96899 116.88 5.67142L122.131 0.420106C122.411 0.140036 122.762 0 123.182 0H138.699C139.137 0 139.356 0.218805 139.356 0.656415V6.32783C139.356 6.76544 139.137 6.98425 138.699 6.98425H126.07C125.825 6.98425 125.615 7.07177 125.44 7.24681C125.265 7.42186 125.177 7.63191 125.177 7.87697V27.0705C125.177 27.3156 125.265 27.5256 125.44 27.7007C125.615 27.8757 125.825 27.9632 126.07 27.9632H131.741V20.9527H128.38C127.943 20.9527 127.724 20.7339 127.724 20.2963V14.6512C127.724 14.2136 127.943 13.9947 128.38 13.9947H139.146C139.583 13.9947 139.802 14.2136 139.802 14.6512V28.2521C139.802 28.6722 139.653 29.0223 139.356 29.3023L134.104 34.5536C133.824 34.8512 133.474 35 133.054 35H123.182Z" fill="#44B6C6"/>
</g>
<defs>
<clipPath id="clip0_8_5">
<rect width="193.521" height="35" fill="white"/>
</clipPath>
</defs>
</svg>
