<svg width="32" height="35" viewBox="0 0 32 35" fill="none" xmlns="http://www.w3.org/2000/svg">
<mask id="mask0_106_260" style="mask-type:luminance" maskUnits="userSpaceOnUse" x="0" y="0" width="32" height="35">
<path d="M31.7267 0.196377H0V34.7948H31.7267V0.196377Z" fill="white"/>
</mask>
<g mask="url(#mask0_106_260)">
<path d="M31.7264 0.196377H24.6152V34.7948H31.7264V0.196377Z" fill="white"/>
<path d="M10.3757 19.2578C10.5364 19.4175 10.5372 19.6772 10.3776 19.8379L0 30.282V8.94859L10.3757 19.2578Z" fill="white"/>
<path d="M0 0.128006H7.65816L21.2096 13.3406C21.2888 13.4179 21.3334 13.5238 21.3334 13.6344V24.8335C21.3334 25.0774 21.0383 25.1993 20.8661 25.0265L4.37609 8.46993V18.3161L0 22.4871V8.40155V0.128006Z" fill="#FB5959"/>
<path d="M21.3336 30.0769L31.7268 19.2051V34.7949H21.3336C17.8505 31.391 15.8796 29.3981 12.4324 26.0277C12.3534 25.9505 12.3079 25.8437 12.3079 25.7333V21.9709C12.3079 21.7293 12.5983 21.6063 12.7718 21.7746L21.3336 30.0769Z" fill="#44B6C6"/>
</g>
</svg>
