<svg width="75" height="74" viewBox="0 0 75 74" fill="none" xmlns="http://www.w3.org/2000/svg">
<path d="M28.5 56.9998L25.4994 69.0004L21.4998 73H53.5002L49.5006 69.0004L46.5 56.9998M1.5 40.9996H73.5M9.4992 56.9998H65.5008C66.5513 56.9998 67.5915 56.7929 68.562 56.3909C69.5325 55.9889 70.4143 55.3997 71.1571 54.6569C71.8999 53.9141 72.4891 53.0323 72.8911 52.0618C73.2931 51.0913 73.5 50.0511 73.5 49.0006V8.9992C73.5 7.94873 73.2931 6.90855 72.8911 5.93804C72.4891 4.96753 71.8999 4.08571 71.1571 3.34291C70.4143 2.60012 69.5325 2.0109 68.562 1.6089C67.5915 1.20691 66.5513 1 65.5008 1H9.4992C7.37768 1 5.34305 1.84277 3.84291 3.34291C2.34277 4.84305 1.5 6.87768 1.5 8.9992V49.0006C1.5 51.1221 2.34277 53.1567 3.84291 54.6569C5.34305 56.157 7.37768 56.9998 9.4992 56.9998Z" stroke="white" stroke-width="2" stroke-linecap="round" stroke-linejoin="round"/>
</svg>
