<svg width="674" height="544" viewBox="0 0 674 544" fill="none" xmlns="http://www.w3.org/2000/svg">
<path d="M641.273 429.364C641.273 425.289 639.654 421.381 636.773 418.5C633.892 415.619 629.984 414 625.909 414H615.273C611.198 414 607.29 415.619 604.409 418.5C601.528 421.381 599.909 425.289 599.909 429.364V505C599.909 509.075 601.528 512.982 604.409 515.864C607.29 518.745 611.198 520.364 615.273 520.364H625.909C629.984 520.364 633.892 518.745 636.773 515.864C639.654 512.982 641.273 509.075 641.273 505V429.364ZM588.091 476.636C588.091 472.562 586.472 468.654 583.591 465.773C580.71 462.891 576.802 461.273 572.727 461.273H562.091C560.073 461.273 558.076 461.67 556.211 462.442C554.347 463.214 552.654 464.346 551.227 465.773C549.801 467.199 548.669 468.893 547.897 470.757C547.125 472.621 546.727 474.619 546.727 476.636V505C546.727 507.018 547.125 509.015 547.897 510.879C548.669 512.743 549.801 514.437 551.227 515.864C552.654 517.29 554.347 518.422 556.211 519.194C558.076 519.966 560.073 520.364 562.091 520.364H572.727C576.802 520.364 580.71 518.745 583.591 515.864C586.472 512.982 588.091 509.075 588.091 505V476.636ZM653.091 532.182C654.658 532.182 656.161 532.804 657.269 533.913C658.377 535.021 659 536.524 659 538.091C659 539.658 658.377 541.161 657.269 542.269C656.161 543.377 654.658 544 653.091 544H534.909C533.342 544 531.839 543.377 530.731 542.269C529.623 541.161 529 539.658 529 538.091C529 536.524 529.623 535.021 530.731 533.913C531.839 532.804 533.342 532.182 534.909 532.182H653.091Z" fill="white"/>
<path d="M141.105 63.6215C139.266 64.6813 137.783 66.2614 136.844 68.1621C135.904 70.0627 135.551 72.1984 135.829 74.2993C136.106 76.4001 137.002 78.3717 138.403 79.9646C139.804 81.5576 141.646 82.7004 143.698 83.2486C145.75 83.7968 147.918 83.7257 149.93 83.0444C151.941 82.363 153.704 81.102 154.997 79.4208C156.29 77.7395 157.054 75.7136 157.193 73.5991C157.332 71.4846 156.839 69.3766 155.777 67.5416C155.071 66.3231 154.132 65.2551 153.013 64.3986C151.894 63.5422 150.617 62.914 149.255 62.55C147.892 62.186 146.471 62.0933 145.073 62.2771C143.675 62.461 142.326 62.9178 141.105 63.6215ZM189.252 75.2455C188.539 74.4414 187.796 73.6355 187.022 72.8279C187.569 72.255 188.099 71.6822 188.611 71.1094C198.267 60.2859 202.343 49.4304 198.566 42.9033C194.945 36.6456 184.173 34.7803 170.689 37.3981C169.36 37.6579 168.039 37.9505 166.725 38.2761C166.473 37.4115 166.206 36.5513 165.922 35.6956C161.335 21.9422 153.944 13 146.393 13C139.15 13 132.15 21.3818 127.685 34.348C127.247 35.6271 126.84 36.916 126.466 38.2147C125.586 37.9994 124.705 37.8011 123.82 37.6196C109.593 34.7056 98.1415 36.6243 94.362 43.1541C90.7482 49.4171 94.5278 59.6508 103.553 69.9833C104.444 71.0062 105.365 72.006 106.313 72.9827C105.198 74.1274 104.141 75.2749 103.157 76.4117C94.3486 86.5974 90.7857 96.6656 94.3941 102.902C98.1201 109.341 109.419 111.441 123.17 108.749C124.285 108.528 125.393 108.28 126.495 108.004C126.898 109.41 127.344 110.803 127.832 112.186C132.278 124.888 139.238 133 146.457 133C153.91 133 161.383 124.285 165.909 111.049C166.267 110.003 166.604 108.914 166.925 107.799C168.352 108.154 169.785 108.468 171.224 108.741C184.475 111.241 194.993 109.274 198.593 103.035C202.311 96.5909 198.478 85.7808 189.244 75.2616L189.252 75.2455ZM98.8129 45.7079C101.132 41.6891 110.499 40.12 122.782 42.6364C123.567 42.7983 124.369 42.9762 125.19 43.1701C123.99 48.4632 123.144 53.8298 122.657 59.2345C118.224 62.345 113.998 65.7384 110.005 69.3935C109.125 68.4862 108.269 67.5567 107.437 66.6049C99.6796 57.7588 96.6356 49.4811 98.8129 45.7079ZM122.186 80.0729C119.115 77.7539 116.261 75.3763 113.672 72.988C116.261 70.613 119.115 68.2461 122.178 65.9325C122.067 68.2896 122.013 70.6477 122.015 73.0067C122.016 75.3656 122.073 77.721 122.186 80.0729ZM122.186 103.713C116.973 104.869 111.592 105.058 106.311 104.271C104.863 104.158 103.454 103.751 102.17 103.073C100.886 102.396 99.7556 101.463 98.8477 100.332C96.6597 96.5482 99.5191 88.4653 107.051 79.7526C107.998 78.6603 108.979 77.5929 109.994 76.5504C113.987 80.2251 118.22 83.6322 122.665 86.7495C123.158 92.2258 124.014 97.6636 125.227 103.027C124.221 103.278 123.209 103.504 122.191 103.705L122.186 103.713ZM164.885 55.4826C162.868 54.2142 160.826 52.9867 158.759 51.8001C156.724 50.633 154.667 49.5087 152.586 48.4271C156.151 46.93 159.658 45.6545 163.042 44.6138C163.84 48.2034 164.456 51.831 164.887 55.4826H164.885ZM132.54 36.0025C136.365 24.8962 142.028 18.1235 146.393 18.1235C151.042 18.1235 157.093 25.4326 161.033 37.3074C161.29 38.0813 161.532 38.8596 161.76 39.6424C156.572 41.2476 151.495 43.1937 146.564 45.4677C141.654 43.1661 136.593 41.1976 131.417 39.5756C131.763 38.3784 132.138 37.1891 132.543 36.0078L132.54 36.0025ZM130.133 44.5417C133.663 45.65 137.135 46.9352 140.535 48.3924C136.323 50.561 132.222 52.9235 128.231 55.4799C128.707 51.6613 129.349 47.9948 130.135 44.5497L130.133 44.5417ZM128.231 90.5014C130.223 91.7734 132.244 92.9991 134.295 94.1786C136.387 95.3794 138.506 96.5304 140.653 97.6316C137.23 99.1411 133.732 100.474 130.173 101.626C129.37 98.1253 128.72 94.4027 128.234 90.5094L128.231 90.5014ZM161.041 109.378C159.441 114.46 156.918 119.204 153.597 123.375C152.776 124.569 151.718 125.583 150.488 126.354C149.259 127.124 147.884 127.635 146.449 127.855C142.071 127.855 136.48 121.347 132.679 110.486C132.232 109.201 131.82 107.905 131.443 106.598C136.645 104.924 141.726 102.9 146.653 100.54C151.625 102.83 156.742 104.791 161.972 106.411C161.686 107.407 161.377 108.396 161.043 109.376L161.041 109.378ZM163.218 101.434C159.794 100.367 156.239 99.0806 152.62 97.5622C154.66 96.4949 156.711 95.3643 158.772 94.1706C160.896 92.9484 162.965 91.6951 164.978 90.4107C164.576 94.1139 163.984 97.7942 163.205 101.437L163.218 101.434ZM165.893 72.9827C165.893 76.6261 165.779 80.2668 165.551 83.9048C162.587 85.9062 159.46 87.8596 156.205 89.7329C152.949 91.6061 149.753 93.314 146.602 94.8671C143.287 93.282 140.036 91.5741 136.849 89.7435C133.663 87.9129 130.571 85.9747 127.573 83.9289C127.297 80.2926 127.157 76.6456 127.156 72.988C127.156 69.341 127.292 65.6941 127.565 62.0471C130.526 60.0297 133.632 58.0764 136.841 56.2271C140.051 54.3778 143.317 52.662 146.551 51.1116C149.825 52.6985 153.04 54.3992 156.197 56.2138C159.353 58.0284 162.458 59.9452 165.51 61.9644C165.773 65.622 165.904 69.285 165.904 72.9533L165.893 72.9827ZM171.647 42.4283C183.199 40.1867 191.911 41.6944 194.094 45.465C196.418 49.4811 193.086 58.3539 184.751 67.7017C184.291 68.2176 183.813 68.7353 183.317 69.2548C179.255 65.5911 174.947 62.2076 170.424 59.1278C169.967 53.7824 169.152 48.4736 167.985 43.2368C169.233 42.9308 170.454 42.664 171.647 42.4363V42.4283ZM170.866 65.7323C173.916 67.9541 176.849 70.3323 179.652 72.8572C176.861 75.4237 173.937 77.8429 170.892 80.1049C170.985 77.7299 171.03 75.3532 171.029 72.9747C171.029 70.5588 170.973 68.1438 170.863 65.7297L170.866 65.7323ZM194.137 100.46C191.951 104.247 183.507 105.827 172.174 103.686C170.875 103.443 169.543 103.152 168.177 102.814C169.316 97.5096 170.095 92.1345 170.507 86.7255C175.018 83.5914 179.308 80.1516 183.346 76.4304C184.06 77.1633 184.733 77.8927 185.366 78.6185C188.98 82.5392 191.84 87.0901 193.802 92.0438C194.43 93.3496 194.783 94.7701 194.838 96.2172C194.894 97.6644 194.652 99.1076 194.126 100.458L194.137 100.46Z" fill="white"/>
<path d="M153 229C146.381 229 141 234.381 141 241V289C141 295.619 146.381 301 153 301H180L177 310H163.5C161.006 310 159 312.006 159 314.5C159 316.994 161.006 319 163.5 319H214.5C216.994 319 219 316.994 219 314.5C219 312.006 216.994 310 214.5 310H201L198 301H225C231.619 301 237 295.619 237 289V241C237 234.381 231.619 229 225 229H153ZM159 241H219C222.319 241 225 243.681 225 247V277C225 280.319 222.319 283 219 283H159C155.681 283 153 280.319 153 277V247C153 243.681 155.681 241 159 241Z" fill="white"/>
<path d="M270.695 444.27H251.486V427.038H270.695V444.27ZM270.695 385H251.486V402.61H270.695V385ZM293.421 427.008H274.212V444.241H293.421V427.008ZM247.999 406.091H228.79V423.527H247.999V406.091ZM270.695 406.091H251.486V423.527H270.695V406.091ZM351.135 435.103C346.95 432.289 337.302 431.273 329.892 432.666C328.933 425.703 325.039 419.639 317.948 414.185L313.879 411.487L311.177 415.549C305.83 423.614 304.377 436.901 310.101 445.663C307.573 447.026 302.604 448.883 296.036 448.767H169.71C167.182 463.505 171.396 482.652 182.497 495.794C193.278 508.53 209.436 515 230.563 515C276.304 515 310.16 493.967 325.998 455.759C332.217 455.883 345.643 455.79 352.53 442.646C352.966 441.92 354.448 438.816 355 437.685L351.135 435.103ZM202.607 427.008H183.427V444.241H202.636V427.008H202.607ZM225.303 427.008H206.094V444.241H225.303V427.008ZM247.999 427.008H228.79V444.241H247.999V427.008ZM225.303 406.091H206.094V423.527H225.303V406.091Z" fill="white"/>
<path d="M640.977 75.3057H657.486V35.5797L638.885 16.9393L627.209 28.6398L640.971 42.437L640.977 75.3057ZM657.527 83.5981H599.938L586.176 69.8009L592.011 63.9537L603.38 75.347H626.773L603.728 52.2119L609.61 46.3174L632.655 69.4111V45.9689L621.327 34.617L627.121 28.8111L598.5 0H541L557.467 16.5023V16.5436H591.622L603.687 28.6339L586.046 46.3115L573.982 34.2213V24.8361H557.473V41.0726L586.046 69.7065L574.418 81.3596L593.019 100H674L657.533 83.5863L657.527 83.5981Z" fill="white"/>
<path d="M525.18 303.5L555.539 228.5H535.414L514.648 276.965L499.879 228.5H484.406L468.555 276.965L457.371 254.883L447.254 285.922L457.527 303.5H477.332L491.66 260.035L505.332 303.5H525.18Z" fill="white"/>
<path d="M415.059 277.754H427.422C430.8 277.801 434.168 277.379 437.43 276.5L440.625 266.66L449.562 239.164C448.873 238.079 448.089 237.056 447.219 236.109C442.641 231.036 435.931 228.5 427.09 228.5H396V303.5H415.059V277.754ZM431.426 245.754C433.22 247.556 434.116 249.967 434.113 252.988C434.111 256.009 433.329 258.422 431.77 260.227C430.04 262.211 426.858 263.202 422.223 263.199H415.059V243.051H422.254C426.574 243.051 429.632 243.952 431.426 245.754ZM543.207 290.066L548.984 275.516H565.66L557.746 253.441L567.645 228.5L596 303.5H575.09L570.246 290.066H543.207Z" fill="white"/>
<line x1="569.624" y1="412.951" x2="520.951" y2="320.376" stroke="white" stroke-width="5" stroke-linecap="round" stroke-dasharray="10 10"/>
<line x1="521.702" y1="218.477" x2="610.477" y2="113.298" stroke="white" stroke-width="5" stroke-linecap="round" stroke-dasharray="10 10"/>
<line x1="326.767" y1="404.549" x2="465.549" y2="316.233" stroke="white" stroke-width="5" stroke-linecap="round" stroke-dasharray="10 10"/>
<line x1="206.404" y1="70.4071" x2="544.407" y2="57.5965" stroke="white" stroke-width="5" stroke-linecap="round" stroke-dasharray="10 10"/>
<line x1="243.5" y1="263.5" x2="379.5" y2="263.5" stroke="white" stroke-width="5" stroke-linecap="round" stroke-dasharray="10 10"/>
<line x1="207.274" y1="111.665" x2="461.665" y2="218.726" stroke="white" stroke-width="5" stroke-linecap="round" stroke-dasharray="10 10"/>
<line x1="526.5" y1="485.5" x2="337.5" y2="485.5" stroke="white" stroke-width="5" stroke-linecap="round" stroke-dasharray="10 10"/>
<line x1="233.772" y1="394.558" x2="209.558" y2="331.228" stroke="white" stroke-width="5" stroke-linecap="round" stroke-dasharray="10 10"/>
<line x1="173.877" y1="212.343" x2="152.343" y2="142.123" stroke="white" stroke-width="5" stroke-linecap="round" stroke-dasharray="10 10"/>
</svg>
