<svg width="65" height="72" viewBox="0 0 65 72" fill="none" xmlns="http://www.w3.org/2000/svg">
<path d="M28.9398 30.3729C27.8396 31.0088 26.9526 31.9569 26.3909 33.0972C25.8291 34.2376 25.6179 35.5191 25.7839 36.7796C25.9499 38.0401 26.4857 39.223 27.3235 40.1788C28.1613 41.1346 29.2635 41.8203 30.4907 42.1492C31.7179 42.4781 33.015 42.4354 34.218 42.0266C35.421 41.6178 36.4758 40.8612 37.2491 39.8525C38.0224 38.8437 38.4795 37.6282 38.5624 36.3595C38.6454 35.0908 38.3506 33.826 37.7153 32.7249C37.2934 31.9938 36.7318 31.3531 36.0625 30.8392C35.3931 30.3253 34.6292 29.9484 33.8143 29.73C32.9994 29.5116 32.1495 29.456 31.3132 29.5663C30.4768 29.6766 29.6703 29.9507 28.9398 30.3729ZM57.7382 37.3473C57.3116 36.8649 56.8668 36.3813 56.4039 35.8967C56.7313 35.553 57.0481 35.2093 57.3543 34.8656C63.1299 28.3715 65.5682 21.8583 63.3091 17.942C61.1428 14.1874 54.7 13.0682 46.6348 14.6389C45.8402 14.7947 45.0498 14.9703 44.2638 15.1656C44.1134 14.6469 43.9534 14.1308 43.7838 13.6174C41.0399 5.3653 36.6194 0 32.1028 0C27.7702 0 23.5833 5.02906 20.913 12.8088C20.6506 13.5763 20.4074 14.3496 20.1835 15.1288C19.6576 14.9997 19.1302 14.8807 18.6011 14.7718C10.0912 13.0234 3.24197 14.1746 0.981287 18.0925C-1.1802 21.8503 1.08048 27.9905 6.47859 34.19C7.0119 34.8037 7.56227 35.4036 8.1297 35.9896C7.46254 36.6765 6.83057 37.3649 6.2418 38.047C0.973288 44.1584 -1.1578 50.1994 1.00049 53.9412C3.22917 57.8046 9.9872 59.0647 18.2124 57.4492C18.879 57.3168 19.5419 57.1679 20.2011 57.0025C20.4421 57.8457 20.7088 58.682 21.001 59.5114C23.6601 67.1326 27.823 72 32.1412 72C36.5986 72 41.0687 66.7708 43.7758 58.8293C43.9902 58.2017 44.1918 57.5484 44.3837 56.8792C45.237 57.0927 46.0941 57.2811 46.9548 57.4444C54.8808 58.9446 61.1716 57.7646 63.3251 54.0212C65.549 50.1546 63.2563 43.6685 57.7334 37.3569L57.7382 37.3473ZM3.64354 19.6247C5.03067 17.2135 10.6336 16.272 17.9804 17.7818C18.4497 17.879 18.9297 17.9857 19.4203 18.1021C18.7029 21.2779 18.1968 24.4979 17.9052 27.7407C15.2539 29.607 12.7261 31.6431 10.3376 33.8361C9.81174 33.2917 9.29977 32.734 8.80167 32.163C4.16192 26.8553 2.34121 21.8887 3.64354 19.6247ZM17.6236 40.2437C15.7869 38.8524 14.0798 37.4258 12.5311 35.9928C14.0798 34.5678 15.7869 33.1476 17.6188 31.7595C17.5527 33.1738 17.5201 34.5886 17.5212 36.004C17.5223 37.4194 17.5564 38.8326 17.6236 40.2437ZM17.6236 54.4279C14.5058 55.1215 11.287 55.2349 8.1281 54.7625C7.26214 54.695 6.41922 54.4504 5.65145 54.0439C4.88368 53.6375 4.20738 53.0777 3.66434 52.3993C2.35561 50.1289 4.06592 45.2792 8.57128 40.0516C9.13765 39.3962 9.72428 38.7558 10.3312 38.1303C12.7199 40.335 15.2517 42.3793 17.91 44.2497C18.2053 47.5355 18.7174 50.7982 19.4427 54.0164C18.8411 54.1669 18.2358 54.3025 17.6268 54.4231L17.6236 54.4279ZM43.163 25.4896C41.9567 24.7285 40.7354 23.992 39.4992 23.28C38.2822 22.5798 37.0513 21.9052 35.8066 21.2562C37.9393 20.358 40.0368 19.5927 42.0607 18.9683C42.538 21.1221 42.9065 23.2986 43.1646 25.4896H43.163ZM23.8169 13.8015C26.1047 7.13772 29.4917 3.07412 32.1028 3.07412C34.8835 3.07412 38.5025 7.45954 40.8591 14.5844C41.0127 15.0488 41.1578 15.5158 41.2943 15.9854C38.1909 16.9486 35.1546 18.1162 32.2052 19.4806C29.268 18.0997 26.241 16.9186 23.1449 15.9454C23.3518 15.227 23.5763 14.5135 23.8185 13.8047L23.8169 13.8015ZM22.3769 18.925C24.4884 19.59 26.5651 20.3611 28.599 21.2354C26.0797 22.5366 23.6265 23.9541 21.2394 25.488C21.5242 23.1968 21.9082 20.9969 22.3785 18.9298L22.3769 18.925ZM21.2394 46.5008C22.4308 47.264 23.6398 47.9995 24.8664 48.7072C26.1175 49.4277 27.3852 50.1183 28.6694 50.779C26.6222 51.6847 24.53 52.4847 22.4009 53.1758C21.921 51.0752 21.5322 48.8416 21.241 46.5056L21.2394 46.5008ZM40.8639 57.827C39.9071 60.876 38.3978 63.7226 36.4114 66.2248C35.9203 66.9416 35.2876 67.5499 34.5523 68.0123C33.817 68.4747 32.9948 68.7812 32.1364 68.9131C29.5173 68.9131 26.1735 65.008 23.9001 58.4915C23.6323 57.7208 23.3859 56.9432 23.1609 56.1587C26.2719 55.1543 29.3112 53.94 32.258 52.5242C35.2319 53.8978 38.2927 55.0745 41.4207 56.0466C41.2501 56.6444 41.065 57.2373 40.8655 57.8254L40.8639 57.827ZM42.1663 53.0606C40.1184 52.4201 37.9921 51.6484 35.8274 50.7374C37.0476 50.0969 38.2742 49.4186 39.5072 48.7023C40.7775 47.969 42.0148 47.2171 43.219 46.4464C42.9787 48.6684 42.6247 50.8765 42.1583 53.0621L42.1663 53.0606ZM43.7662 35.9896C43.7662 38.1756 43.6979 40.3601 43.5614 42.5429C41.7887 43.7437 39.9184 44.9157 37.9713 46.0397C36.0242 47.1637 34.1123 48.1884 32.2276 49.1202C30.2448 48.1692 28.3003 47.1445 26.3943 46.0461C24.4883 44.9478 22.6388 43.7848 20.8458 42.5573C20.6805 40.3755 20.5973 38.1874 20.5962 35.9928C20.5962 33.8046 20.6778 31.6164 20.841 29.4283C22.6121 28.2178 24.4696 27.0458 26.3895 25.9363C28.3094 24.8267 30.2629 23.7972 32.1972 22.867C34.1555 23.8191 36.0786 24.8395 37.9665 25.9283C39.8544 27.017 41.7114 28.1671 43.5374 29.3786C43.6942 31.5732 43.7726 33.771 43.7726 35.972L43.7662 35.9896ZM47.2076 17.657C54.1176 16.312 59.3285 17.2167 60.6341 19.479C62.0244 21.8887 60.0309 27.2123 55.0456 32.821C54.7704 33.1306 54.4845 33.4412 54.188 33.7528C51.7583 31.5546 49.1818 29.5246 46.4764 27.6767C46.2032 24.4695 45.7157 21.2841 45.0173 18.1421C45.7639 17.9585 46.494 17.7984 47.2076 17.6618V17.657ZM46.7404 31.6394C48.565 32.9725 50.3193 34.3994 51.9961 35.9143C50.3265 37.4542 48.5775 38.9057 46.7564 40.2629C46.8119 38.838 46.8391 37.4119 46.838 35.9848C46.838 34.5353 46.805 33.0863 46.7388 31.6378L46.7404 31.6394ZM60.6597 52.4762C59.3525 54.7481 54.3016 55.696 47.5228 54.4119C46.7463 54.2657 45.9495 54.0911 45.1325 53.8883C45.8138 50.7057 46.2793 47.4807 46.526 44.2353C49.2244 42.3549 51.7903 40.291 54.2056 38.0582C54.6323 38.498 55.0349 38.9356 55.4136 39.3711C57.5753 41.7235 59.2858 44.4541 60.4597 47.4263C60.8351 48.2098 61.046 49.062 61.0793 49.9303C61.1126 50.7986 60.9676 51.6645 60.6533 52.4745L60.6597 52.4762Z" fill="white"/>
</svg>
