<svg width="74" height="74" viewBox="0 0 74 74" fill="none" xmlns="http://www.w3.org/2000/svg">
<path d="M33.7052 72.9077C31.5786 72.7144 28.7599 72.2059 27.5015 71.7885C26.6872 71.5184 26.469 71.3597 26.4895 71.0527C26.5039 70.8374 27.3705 68.1954 28.4153 65.1816C29.4601 62.1677 30.3869 59.4816 30.4747 59.2126C30.5626 58.9435 31.4424 56.3895 32.43 53.5371C33.4175 50.6847 34.5758 47.3381 35.0041 46.1003C35.4323 44.8625 36.0639 42.9917 36.4076 41.9431C36.8858 40.4845 37.1142 40.0361 37.38 40.035C37.5773 40.0342 37.82 40.2659 37.9418 40.5716C38.1909 41.1968 40.8316 48.4377 43.2769 55.2006C44.211 57.7839 45.1025 60.2058 45.258 60.5825C45.4136 60.9592 46.0627 62.7206 46.7005 64.4966C47.3383 66.2726 48.0883 68.3418 48.3671 69.0948C48.646 69.8478 48.8741 70.5648 48.8741 70.6881C48.8741 71.1416 45.762 72.0376 42.1913 72.6121C39.9814 72.9676 35.9206 73.1091 33.7052 72.9077ZM40.4245 72.312C43.2649 71.9992 47.6189 71.0172 48.1397 70.572C48.2716 70.4593 47.9119 69.4022 45.6064 63.1267C45.2308 62.1041 44.5793 60.3207 44.1586 59.1636C43.7379 58.0065 43.0415 56.0911 42.6108 54.907C42.1802 53.723 41.4756 51.7855 41.045 50.6015C40.6144 49.4175 39.9157 47.502 39.4923 46.3449C39.0689 45.1878 38.421 43.4138 38.0525 42.4027C37.5292 40.9666 37.3596 40.6668 37.2777 41.0327C37.22 41.2904 36.364 43.835 35.3756 46.6874C34.3872 49.5398 33.4626 52.2259 33.3209 52.6564C33.1793 53.087 32.2535 55.773 31.2636 58.6255C30.2738 61.4779 29.2569 64.4281 29.0039 65.1816C28.7509 65.935 28.1861 67.5643 27.7488 68.8021C27.3114 70.04 26.9534 71.0608 26.9531 71.0707C26.9517 71.1274 28.6235 71.5742 29.5206 71.7568C33.0553 72.476 37.0766 72.6808 40.4245 72.312ZM19.1731 68.4566C11.1875 63.8723 5.25907 56.6525 2.48869 48.138C1.15307 44.0331 0.846845 41.9899 0.834018 37.0979C0.825363 33.8119 0.902001 32.4615 1.18356 30.9331C1.9549 26.7466 3.4818 22.2243 4.12395 22.2243C4.43053 22.2243 4.37582 22.0976 6.02594 26.6276C6.6925 28.4575 7.54329 30.7913 7.9166 31.8138C8.28991 32.8364 8.94623 34.6418 9.37508 35.8258C9.80394 37.0098 10.4906 38.9033 10.9011 40.0335C11.3115 41.1637 12.1887 43.5855 12.8503 45.4153C13.512 47.2452 14.1321 48.9185 14.2283 49.1337C14.3778 49.468 16.1465 54.3075 19.1279 62.5396C19.5372 63.6698 20.1993 65.4751 20.5992 66.5515C21.7724 69.7089 21.6468 69.8767 19.1731 68.4566ZM20.3614 67.4811C20.083 66.7546 19.5679 65.3675 19.2165 64.3988C17.432 59.4778 14.2407 50.7311 13.54 48.8402C13.2807 48.1405 12.6192 46.3352 12.07 44.8282C11.5208 43.3213 10.7336 41.1637 10.3206 40.0335C9.23577 37.0642 8.00163 33.6716 7.47287 32.2052C7.22059 31.5056 6.5772 29.7442 6.04313 28.2911C5.50906 26.838 4.87492 25.0987 4.63393 24.426C4.39294 23.7532 4.13315 23.2028 4.0566 23.2028C3.90039 23.2028 2.66797 26.7824 2.2037 28.5847C1.27855 32.176 1.00785 38.5301 1.61789 42.3351C2.59248 48.4139 5.24729 54.4437 9.00561 59.1147C10.603 61.1 13.9246 64.3031 15.7006 65.5707C16.7911 66.349 20.6551 68.7816 20.8274 68.7982C20.8495 68.8005 20.6398 68.2077 20.3614 67.4811ZM54.5502 67.7732C54.5502 67.6378 54.8236 66.7351 55.1578 65.7672C55.492 64.7993 56.1904 62.7744 56.7098 61.2675C59.16 54.1591 61.2854 48.025 62.4736 44.6325C63.1899 42.5874 64.0442 40.1215 64.372 39.1528C64.6999 38.184 65.2689 36.5596 65.6364 35.5429C67.5119 30.355 68.1222 27.1072 68.0249 22.8329C67.9591 19.9457 68.0437 19.4871 68.5759 19.845C68.8899 20.0561 70.717 24.3476 71.2553 26.1384C72.4324 30.0542 72.8478 32.9399 72.833 37.0979C72.8206 40.5656 72.5169 42.9445 71.6708 46.2008C69.5332 54.4269 64.1962 61.9556 57.0947 66.7626C55.2879 67.9857 54.5502 68.2786 54.5502 67.7732ZM60.1674 63.7033C65.7008 58.9921 70.007 51.6803 71.5817 44.3218C73.1517 36.9859 72.2803 29.0196 69.1645 22.2219L68.4928 20.7565L68.5938 22.4444C68.8194 26.2165 68.0464 30.4939 66.2219 35.5679C65.057 38.8077 64.1965 41.2634 62.8744 45.1218C62.2659 46.8978 61.632 48.7472 61.4658 49.2316C61.2996 49.716 61.0921 50.2884 61.0046 50.5037C60.9172 50.7189 60.5186 51.8638 60.1188 53.0478C58.8141 56.912 55.4774 66.5072 55.2224 67.1283C55.0188 67.624 57.9332 65.6055 60.1674 63.7033ZM26.871 56.913C26.4924 55.7559 25.1136 51.6388 23.807 47.7638C18.0493 30.6878 14.6218 20.3923 14.6218 20.1735C14.6218 20.0162 15.3903 19.8558 16.9216 19.6934C18.4464 19.5318 19.3368 19.3464 19.5639 19.1431C20.0748 18.6859 20.0026 17.7951 19.424 17.416C19.0019 17.1394 18.6896 17.1266 16.9284 17.3134C14.0387 17.6199 7.05508 17.6723 6.77231 17.3895C6.50152 17.1188 6.79273 16.6739 9.05411 13.9034C12.7918 9.32434 17.8252 5.63778 23.3765 3.41344C25.0555 2.74069 25.4411 2.61411 27.442 2.0791C31.0317 1.11923 32.1588 0.989836 36.8369 1.00058C40.3279 1.00865 41.7341 1.08907 43.1002 1.35899C49.5313 2.62972 55.2392 5.28411 59.8062 9.1279C60.5868 9.78492 61.1918 10.4244 61.1505 10.549C61.1092 10.6736 60.5901 10.8285 59.9969 10.8932C57.0451 11.2152 54.8709 13.7316 54.8569 16.8424C54.8487 18.66 55.311 20.0109 56.8561 22.6839C60.5455 29.0662 61.205 30.9427 61.205 35.0578C61.205 37.3709 60.8679 39.1121 59.6355 43.1647C59.1936 44.6178 58.7555 46.0709 58.662 46.3939C58.4017 47.2926 58.0354 48.5217 56.4459 53.8307C55.1723 58.0842 54.9337 58.7145 54.6188 58.6558C54.4196 58.6186 54.2527 58.5746 54.2478 58.5579C54.1297 58.1518 48.0851 40.1023 45.2587 31.716C43.1547 25.473 41.4708 20.2663 41.5169 20.1456C41.5638 20.0226 42.5999 19.8147 43.8744 19.6727C45.125 19.5333 46.2682 19.3239 46.4149 19.2072C46.9641 18.7705 46.9682 18.148 46.4253 17.6051C45.9536 17.1335 45.8228 17.1011 44.8963 17.2275C41.7077 17.6623 31.1218 17.6616 27.4183 17.226C26.3506 17.1005 26.1749 17.1305 25.8035 17.5018C25.298 18.0073 25.2653 18.7292 25.7294 19.1383C25.9439 19.3275 26.8396 19.527 28.127 19.6724C29.2574 19.8001 30.261 19.9812 30.3574 20.075C30.5162 20.2295 31.5081 22.8251 33.011 27.0188C33.3196 27.8799 34.1085 30.0358 34.7641 31.8096C35.4197 33.5835 35.9561 35.2081 35.9561 35.4199C35.9561 35.6317 34.2166 41.0273 32.0905 47.4101C29.0023 56.6815 28.158 59.0154 27.8922 59.0159C27.6422 59.0165 27.3883 58.4937 26.871 56.913ZM31.7242 46.7683L35.5 35.45L34.858 33.6808C34.258 32.0273 33.6954 30.4826 31.3626 24.0835C29.8254 19.8666 30.2425 20.3493 28.0029 20.196C25.8962 20.0518 25.2415 19.7628 24.9093 18.8302C24.6543 18.1143 25.198 16.995 25.8846 16.8228C26.1645 16.7525 28.5412 16.8072 31.1661 16.9445C35.0572 17.1478 36.9041 17.1468 41.1672 16.9393L46.3959 16.6844L46.8521 17.2148C47.2959 17.7307 47.4335 18.5394 47.1867 19.1823C46.9658 19.7581 45.9929 20.0662 43.9794 20.1981C42.2874 20.309 42.0081 20.3744 42.0902 20.6403C42.1432 20.812 43.5704 25.0476 45.2619 30.0527C46.9533 35.0579 49.7631 43.3953 51.5058 48.5803L54.6744 58.0076L55.0837 56.5063C55.4566 55.1385 56.7113 50.951 58.8467 43.9478C60.6119 38.1584 60.9923 35.9071 60.6417 33.3236C60.21 30.1432 59.3743 27.9749 57.1953 24.3818C54.9321 20.6498 54.3545 19.1318 54.3545 16.9154C54.3545 13.7054 56.2801 11.1611 59.226 10.4787L60.2809 10.2344L59.5196 9.57291C57.2304 7.58383 52.3456 4.7536 49.1677 3.57511C40.3981 0.322955 30.2757 0.738964 21.7658 4.70128C16.6895 7.0649 11.8324 11.0075 8.33101 15.6066L7.16654 17.1362L8.88796 17.1391C9.83473 17.1406 12.6242 17.0348 15.0868 16.9034L19.5642 16.6643L20.0289 17.2046C20.619 17.8906 20.622 18.7261 20.0367 19.4065C19.5411 19.9826 18.4782 20.2256 16.3344 20.2528C15.7154 20.2607 15.209 20.3203 15.209 20.3853C15.209 20.4503 17.063 26.0205 19.329 32.7636C21.595 39.5068 24.4354 47.9841 25.6412 51.6023C26.8469 55.2204 27.8593 58.1595 27.8909 58.1336C27.9224 58.1076 29.6474 52.9933 31.7242 46.7683Z" fill="white" stroke="white"/>
</svg>
